# xmcd CD database file
#
# Track frame offsets:
#	150
#	21338
#	55352
#	67994
#	83909
#	103992
#	127431
#	139749
#	150159
#	168430
#
# Disc length: 2458 seconds
#
# Revision: 0
# Processed by: cddbd v1.5.2PL0 Copyright (c) Steve Scherf et al.
# Submitted via: CDex 1.70beta2
#
DISCID=8a09980a
DTITLE=SYNTHETICA - HATE THE WORLD
DYEAR=2012
DGENRE=Industrial Metal
TTITLE0=MAKE A CHANGE
TTITLE1=HATE THE WORLD
TTITLE2=LAST CHANCE
TTITLE3=SELFISH
TTITLE4=SATURDAY BLATTERDAY
TTITLE5=FIGHT THE WAR
TTITLE6=UGLY GIRLS
TTITLE7=FUNKY MONKEY
TTITLE8=RAINY DAY
TTITLE9=NECRO
EXTD=YEAR: 2012
EXTT0=
EXTT1=
EXTT2=
EXTT3=
EXTT4=
EXTT5=
EXTT6=
EXTT7=
EXTT8=
EXTT9=
PLAYORDER=
